<svg width="362" height="85" viewBox="0 0 362 85" fill="none" xmlns="http://www.w3.org/2000/svg">
<g clip-path="url(#clip0_1579_86)">
<path d="M38.6566 -0.000854492H45.6066C46.0068 0.194213 48.9102 0.453038 49.5523 0.562345C54.799 1.4555 61.0032 3.59834 65.5024 6.51093C75.4282 12.9365 82.9 23.753 84.4552 35.5591C85.1576 40.7622 85.0078 46.3403 84.0659 51.5034C83.6416 53.8305 82.6304 56.5422 81.7469 58.7301C78.128 67.6922 70.0601 76.758 61.0978 80.5445C60.6487 80.9239 56.8349 82.462 56.1794 82.6417C53.8954 83.5665 51.6691 83.9973 49.2676 84.4308C48.5259 84.5642 46.1007 84.7339 45.5287 84.9991H40.6627C40.357 84.8301 39.2475 84.7239 38.8462 84.6704C36.6476 84.2796 34.4124 84.1984 32.1746 83.6379C25.5971 81.9906 17.7185 78.0872 12.9992 73.2075C11.904 72.0424 10.1023 70.3782 9.30543 69.1061C5.08291 64.5883 2.26352 57.5754 0.739208 51.6449C0.35183 50.1378 0.379942 48.2196 0.0200355 46.9042L0 46.8335V37.9604C0.160808 37.4369 0.195418 36.3697 0.276472 35.7728C0.37808 35.0246 0.485575 34.3238 0.642536 33.5789C1.49887 29.5145 3.13438 25.0453 5.19945 21.4459C6.9654 18.3678 9.16495 15.4155 11.6517 12.9128C12.4314 12.1282 13.1252 11.2658 13.959 10.515C14.4954 10.0211 15.0993 9.58297 15.6647 9.12595C21.5901 4.33651 29.0156 1.2167 36.5712 0.260503C37.1903 0.182151 38.0102 0.175485 38.5869 0.0188023L38.6566 -0.000854492Z" fill="#009E6A"/>
<path d="M27.065 48.5963C27.8797 46.4819 28.5885 44.2509 29.3891 42.1005C31.985 35.1285 36.4163 28.159 43.4763 25.0142C47.8506 23.1126 52.7978 23.0103 57.2469 24.7294C60.5922 26.0152 61.7707 27.375 64.324 29.3425C63.2823 30.3451 62.2489 31.2747 61.3128 32.3819C57.7084 36.6658 55.6891 42.0603 55.5945 47.658C55.5233 50.1658 55.8634 52.6683 56.6012 55.0662C56.9684 56.2238 57.4652 57.3914 57.838 58.55C59.9804 65.2087 59.8451 71.6624 57.8172 78.2813C57.5399 79.2012 57.2214 80.1082 56.8628 80.9996C56.6773 81.456 56.3154 82.2182 56.1797 82.6418C53.8957 83.5667 51.6694 83.9974 49.2679 84.431C48.5262 84.5643 46.101 84.734 45.529 84.9993H40.663C40.3573 84.8303 39.2478 84.724 38.8465 84.6706C36.6479 84.2798 34.4127 84.1985 32.1749 83.638C25.5973 81.9908 17.7188 78.0873 12.9995 73.2077C13.2205 72.9025 14.0398 72.3099 14.3758 71.9569C20.7104 65.3017 24.1468 57.1869 27.065 48.5963Z" fill="#69D66C"/>
<path d="M27.065 48.5959C27.8568 48.5998 28.6578 48.714 29.4508 48.7735C34.259 49.1338 39.4012 50.7524 42.919 54.1685C45.2487 56.431 46.2685 59.8114 46.1855 63.0184C46.0347 68.8476 43.7931 74.9316 41.2497 80.0994C40.8397 80.9515 40.4068 81.7922 39.9517 82.6216C39.7187 83.0416 38.9826 84.3023 38.8465 84.6702C36.6479 84.2795 34.4127 84.1982 32.1749 83.6377C25.5973 81.9905 17.7188 78.087 12.9995 73.2074C13.2205 72.9022 14.0398 72.3096 14.3758 71.9566C20.7104 65.3014 24.1468 57.1866 27.065 48.5959Z" fill="#03A0A5"/>
<path d="M46.8847 31.5062C49.1393 31.0575 51.331 32.5202 51.7816 34.7744C52.2323 37.0285 50.7714 39.2215 48.5176 39.6741C46.2612 40.1272 44.0649 38.6641 43.6138 36.4073C43.1626 34.1505 44.6275 31.9555 46.8847 31.5062Z" fill="#0A3852"/>
<path d="M22.7411 18.0314C24.2444 16.3989 25.7351 14.9256 27.572 13.6491C31.5534 10.8823 35.9002 9.0331 40.8121 8.82908C48.1599 8.49678 55.3293 11.1533 60.6865 16.1933C63.7157 18.9921 66.0931 22.369 67.4534 26.2611C67.7812 26.8651 68.0328 28.9474 68.4285 29.3925C69.2566 30.2957 70.2735 30.7989 71.1979 31.6743C78.7279 38.8054 78.991 49.6259 73.6507 58.1153C73.2456 58.7588 71.8558 61.2476 70.8893 60.0322C70.1536 59.1065 69.2546 57.4009 68.7714 56.2971C67.5494 57.1074 63.4405 58.292 61.7487 58.9167C63.23 64.288 63.4533 69.9286 62.4014 75.4004C62.1855 76.5093 61.9103 77.4677 61.6021 78.5459C61.4576 79.0514 61.1416 80.074 61.098 80.5446C60.6489 80.924 56.8351 82.4621 56.1795 82.6418C56.3152 82.2183 56.6771 81.456 56.8627 80.9996C57.2213 80.1082 57.5398 79.2012 57.8171 78.2813C59.8449 71.6624 59.9803 65.2087 57.8379 58.55C57.4651 57.3914 56.9683 56.2238 56.6011 55.0662C55.8633 52.6683 55.5232 50.1658 55.5944 47.658C55.6889 42.0603 57.7083 36.6658 61.3126 32.3819C62.2488 31.2746 63.2822 30.3451 64.3238 29.3425C61.7706 27.375 60.5921 26.0152 57.2468 24.7294C52.7976 23.0103 47.8505 23.1126 43.4762 25.0142C36.4162 28.159 31.9849 35.1285 29.389 42.1005C28.5883 44.2509 27.8796 46.4819 27.0648 48.5963C24.1467 57.1869 20.7103 65.3017 14.3757 71.9569C14.0396 72.3099 13.2204 72.9025 12.9993 73.2077C11.9042 72.0425 10.1025 70.3784 9.3056 69.1062C9.49835 68.7737 9.8914 67.268 10.0345 66.7985L11.6521 61.5771C14.3611 52.8638 17.0707 43.8396 21.1235 35.6494C21.7487 34.3861 22.7662 32.3105 23.6143 31.2438C20.1293 30.5556 16.9589 28.7013 14.9076 25.7101C13.5493 23.7293 12.8344 21.1611 13.1474 18.7317C13.2082 18.3748 13.3828 17.9995 13.6962 17.8027C13.9043 17.6721 14.2637 17.5884 14.4999 17.6001C17.2025 17.7332 20.0605 17.756 22.7411 18.0314Z" fill="#0A3852"/>
<path d="M66.2741 32.345C69.3341 34.6229 71.8464 37.6224 73.0194 41.3105C74.2566 45.2009 73.632 50.491 71.7088 54.0804C71.1568 52.8725 70.5112 52.2216 69.6291 51.2461C66.4329 47.7937 63.5191 46.2026 59.5253 44.0032C61.0498 38.6678 62.7107 36.3828 66.2741 32.345Z" fill="#FEA82B"/>
<path d="M59.0994 47.9701C61.9879 49.5474 64.4597 50.9213 66.7582 53.4073C66.2959 53.6731 65.6303 53.8894 65.1148 54.075C63.7092 54.528 62.0136 55.0543 60.6566 55.6131C59.6929 53.1766 59.1658 50.5894 59.0994 47.9701Z" fill="#FEA82B"/>
</g>
<path d="M128.104 19.496V53H121.384V38.744H107.032V53H100.312V19.496H107.032V33.272H121.384V19.496H128.104ZM132.99 39.608C132.99 36.92 133.518 34.536 134.574 32.456C135.662 30.376 137.118 28.776 138.942 27.656C140.798 26.536 142.862 25.976 145.134 25.976C147.118 25.976 148.846 26.376 150.318 27.176C151.822 27.976 153.022 28.984 153.918 30.2V26.408H160.686V53H153.918V49.112C153.054 50.36 151.854 51.4 150.318 52.232C148.814 53.032 147.07 53.432 145.086 53.432C142.846 53.432 140.798 52.856 138.942 51.704C137.118 50.552 135.662 48.936 134.574 46.856C133.518 44.744 132.99 42.328 132.99 39.608ZM153.918 39.704C153.918 38.072 153.598 36.68 152.958 35.528C152.318 34.344 151.454 33.448 150.366 32.84C149.278 32.2 148.11 31.88 146.862 31.88C145.614 31.88 144.462 32.184 143.406 32.792C142.35 33.4 141.486 34.296 140.814 35.48C140.174 36.632 139.854 38.008 139.854 39.608C139.854 41.208 140.174 42.616 140.814 43.832C141.486 45.016 142.35 45.928 143.406 46.568C144.494 47.208 145.646 47.528 146.862 47.528C148.11 47.528 149.278 47.224 150.366 46.616C151.454 45.976 152.318 45.08 152.958 43.928C153.598 42.744 153.918 41.336 153.918 39.704ZM181.985 26.024C185.153 26.024 187.713 27.032 189.665 29.048C191.617 31.032 192.593 33.816 192.593 37.4V53H185.873V38.312C185.873 36.2 185.345 34.584 184.289 33.464C183.233 32.312 181.793 31.736 179.969 31.736C178.113 31.736 176.641 32.312 175.553 33.464C174.497 34.584 173.969 36.2 173.969 38.312V53H167.249V26.408H173.969V29.72C174.865 28.568 176.001 27.672 177.377 27.032C178.785 26.36 180.321 26.024 181.985 26.024ZM243.768 19.496L234.408 53H226.488L220.2 29.144L213.624 53L205.752 53.048L196.728 19.496H203.928L209.832 45.512L216.648 19.496H224.136L230.568 45.368L236.52 19.496H243.768ZM254.876 30.536C255.74 29.128 256.86 28.024 258.236 27.224C259.644 26.424 261.244 26.024 263.036 26.024V33.08H261.26C259.148 33.08 257.548 33.576 256.46 34.568C255.404 35.56 254.876 37.288 254.876 39.752V53H248.156V26.408H254.876V30.536ZM270.97 23.24C269.786 23.24 268.794 22.872 267.994 22.136C267.226 21.368 266.842 20.424 266.842 19.304C266.842 18.184 267.226 17.256 267.994 16.52C268.794 15.752 269.786 15.368 270.97 15.368C272.154 15.368 273.13 15.752 273.898 16.52C274.698 17.256 275.098 18.184 275.098 19.304C275.098 20.424 274.698 21.368 273.898 22.136C273.13 22.872 272.154 23.24 270.97 23.24ZM274.282 26.408V53H267.562V26.408H274.282ZM288.745 31.928V44.792C288.745 45.688 288.953 46.344 289.369 46.76C289.817 47.144 290.553 47.336 291.577 47.336H294.697V53H290.473C284.809 53 281.977 50.248 281.977 44.744V31.928H278.809V26.408H281.977V19.832H288.745V26.408H294.697V31.928H288.745ZM324.251 39.128C324.251 40.088 324.187 40.952 324.059 41.72H304.619C304.779 43.64 305.451 45.144 306.635 46.232C307.819 47.32 309.275 47.864 311.003 47.864C313.499 47.864 315.275 46.792 316.331 44.648H323.579C322.811 47.208 321.339 49.32 319.163 50.984C316.987 52.616 314.315 53.432 311.147 53.432C308.587 53.432 306.283 52.872 304.235 51.752C302.219 50.6 300.635 48.984 299.483 46.904C298.363 44.824 297.803 42.424 297.803 39.704C297.803 36.952 298.363 34.536 299.483 32.456C300.603 30.376 302.171 28.776 304.187 27.656C306.203 26.536 308.523 25.976 311.147 25.976C313.675 25.976 315.931 26.52 317.915 27.608C319.931 28.696 321.483 30.248 322.571 32.264C323.691 34.248 324.251 36.536 324.251 39.128ZM317.291 37.208C317.259 35.48 316.635 34.104 315.419 33.08C314.203 32.024 312.715 31.496 310.955 31.496C309.291 31.496 307.883 32.008 306.731 33.032C305.611 34.024 304.923 35.416 304.667 37.208H317.291Z" fill="#009E6A"/>
<path d="M100.344 76.645H104.024V78.421H98.1041V67.253H100.344V76.645ZM113.688 73.797C113.688 74.117 113.667 74.405 113.624 74.661H107.144C107.197 75.301 107.421 75.8024 107.816 76.165C108.211 76.5277 108.696 76.709 109.272 76.709C110.104 76.709 110.696 76.3517 111.048 75.637H113.464C113.208 76.4904 112.717 77.1944 111.992 77.749C111.267 78.293 110.376 78.565 109.32 78.565C108.467 78.565 107.699 78.3784 107.016 78.005C106.344 77.621 105.816 77.0824 105.432 76.389C105.059 75.6957 104.872 74.8957 104.872 73.989C104.872 73.0717 105.059 72.2664 105.432 71.573C105.805 70.8797 106.328 70.3464 107 69.973C107.672 69.5997 108.445 69.413 109.32 69.413C110.163 69.413 110.915 69.5944 111.576 69.957C112.248 70.3197 112.765 70.837 113.128 71.509C113.501 72.1704 113.688 72.933 113.688 73.797ZM111.368 73.157C111.357 72.581 111.149 72.1224 110.744 71.781C110.339 71.429 109.843 71.253 109.256 71.253C108.701 71.253 108.232 71.4237 107.848 71.765C107.475 72.0957 107.245 72.5597 107.16 73.157H111.368ZM114.747 73.957C114.747 73.061 114.923 72.2664 115.275 71.573C115.638 70.8797 116.123 70.3464 116.731 69.973C117.35 69.5997 118.038 69.413 118.795 69.413C119.456 69.413 120.032 69.5464 120.523 69.813C121.024 70.0797 121.424 70.4157 121.723 70.821V69.557H123.979V78.421H121.723V77.125C121.435 77.541 121.035 77.8877 120.523 78.165C120.022 78.4317 119.44 78.565 118.779 78.565C118.032 78.565 117.35 78.373 116.731 77.989C116.123 77.605 115.638 77.0664 115.275 76.373C114.923 75.669 114.747 74.8637 114.747 73.957ZM121.723 73.989C121.723 73.445 121.616 72.981 121.403 72.597C121.19 72.2024 120.902 71.9037 120.539 71.701C120.176 71.4877 119.787 71.381 119.371 71.381C118.955 71.381 118.571 71.4824 118.219 71.685C117.867 71.8877 117.579 72.1864 117.355 72.581C117.142 72.965 117.035 73.4237 117.035 73.957C117.035 74.4904 117.142 74.9597 117.355 75.365C117.579 75.7597 117.867 76.0637 118.219 76.277C118.582 76.4904 118.966 76.597 119.371 76.597C119.787 76.597 120.176 76.4957 120.539 76.293C120.902 76.0797 121.19 75.781 121.403 75.397C121.616 75.0024 121.723 74.533 121.723 73.989ZM128.407 70.933C128.695 70.4637 129.068 70.0957 129.527 69.829C129.996 69.5624 130.529 69.429 131.127 69.429V71.781H130.535C129.831 71.781 129.297 71.9464 128.935 72.277C128.583 72.6077 128.407 73.1837 128.407 74.005V78.421H126.167V69.557H128.407V70.933ZM137.547 69.429C138.603 69.429 139.457 69.765 140.107 70.437C140.758 71.0984 141.083 72.0264 141.083 73.221V78.421H138.843V73.525C138.843 72.821 138.667 72.2824 138.315 71.909C137.963 71.525 137.483 71.333 136.875 71.333C136.257 71.333 135.766 71.525 135.403 71.909C135.051 72.2824 134.875 72.821 134.875 73.525V78.421H132.635V69.557H134.875V70.661C135.174 70.277 135.553 69.9784 136.011 69.765C136.481 69.541 136.993 69.429 137.547 69.429ZM145.661 76.069L143.789 80.565H142.349L143.389 76.069H145.661ZM166.016 67.253L162.896 78.421H160.256L158.16 70.469L155.968 78.421L153.344 78.437L150.336 67.253H152.736L154.704 75.925L156.976 67.253H159.472L161.616 75.877L163.6 67.253H166.016ZM169.719 70.933C170.007 70.4637 170.38 70.0957 170.839 69.829C171.308 69.5624 171.842 69.429 172.439 69.429V71.781H171.847C171.143 71.781 170.61 71.9464 170.247 72.277C169.895 72.6077 169.719 73.1837 169.719 74.005V78.421H167.479V69.557H169.719V70.933ZM175.084 68.501C174.689 68.501 174.359 68.3784 174.092 68.133C173.836 67.877 173.708 67.5624 173.708 67.189C173.708 66.8157 173.836 66.5064 174.092 66.261C174.359 66.005 174.689 65.877 175.084 65.877C175.479 65.877 175.804 66.005 176.06 66.261C176.327 66.5064 176.46 66.8157 176.46 67.189C176.46 67.5624 176.327 67.877 176.06 68.133C175.804 68.3784 175.479 68.501 175.084 68.501ZM176.188 69.557V78.421H173.948V69.557H176.188ZM181.009 71.397V75.685C181.009 75.9837 181.078 76.2024 181.217 76.341C181.366 76.469 181.612 76.533 181.953 76.533H182.993V78.421H181.585C179.697 78.421 178.753 77.5037 178.753 75.669V71.397H177.697V69.557H178.753V67.365H181.009V69.557H182.993V71.397H181.009ZM192.844 73.797C192.844 74.117 192.823 74.405 192.78 74.661H186.3C186.353 75.301 186.577 75.8024 186.972 76.165C187.367 76.5277 187.852 76.709 188.428 76.709C189.26 76.709 189.852 76.3517 190.204 75.637H192.62C192.364 76.4904 191.873 77.1944 191.148 77.749C190.423 78.293 189.532 78.565 188.476 78.565C187.623 78.565 186.855 78.3784 186.172 78.005C185.5 77.621 184.972 77.0824 184.588 76.389C184.215 75.6957 184.028 74.8957 184.028 73.989C184.028 73.0717 184.215 72.2664 184.588 71.573C184.961 70.8797 185.484 70.3464 186.156 69.973C186.828 69.5997 187.601 69.413 188.476 69.413C189.319 69.413 190.071 69.5944 190.732 69.957C191.404 70.3197 191.921 70.837 192.284 71.509C192.657 72.1704 192.844 72.933 192.844 73.797ZM190.524 73.157C190.513 72.581 190.305 72.1224 189.9 71.781C189.495 71.429 188.999 71.253 188.412 71.253C187.857 71.253 187.388 71.4237 187.004 71.765C186.631 72.0957 186.401 72.5597 186.316 73.157H190.524ZM196.927 76.069L195.055 80.565H193.615L194.655 76.069H196.927ZM201.778 73.957C201.778 73.061 201.954 72.2664 202.306 71.573C202.669 70.8797 203.154 70.3464 203.762 69.973C204.381 69.5997 205.069 69.413 205.826 69.413C206.487 69.413 207.063 69.5464 207.554 69.813C208.055 70.0797 208.455 70.4157 208.754 70.821V69.557H211.01V78.421H208.754V77.125C208.466 77.541 208.066 77.8877 207.554 78.165C207.053 78.4317 206.471 78.565 205.81 78.565C205.063 78.565 204.381 78.373 203.762 77.989C203.154 77.605 202.669 77.0664 202.306 76.373C201.954 75.669 201.778 74.8637 201.778 73.957ZM208.754 73.989C208.754 73.445 208.647 72.981 208.434 72.597C208.221 72.2024 207.933 71.9037 207.57 71.701C207.207 71.4877 206.818 71.381 206.402 71.381C205.986 71.381 205.602 71.4824 205.25 71.685C204.898 71.8877 204.61 72.1864 204.386 72.581C204.173 72.965 204.066 73.4237 204.066 73.957C204.066 74.4904 204.173 74.9597 204.386 75.365C204.61 75.7597 204.898 76.0637 205.25 76.277C205.613 76.4904 205.997 76.597 206.402 76.597C206.818 76.597 207.207 76.4957 207.57 76.293C207.933 76.0797 208.221 75.781 208.434 75.397C208.647 75.0024 208.754 74.533 208.754 73.989ZM218.11 69.429C219.166 69.429 220.019 69.765 220.67 70.437C221.321 71.0984 221.646 72.0264 221.646 73.221V78.421H219.406V73.525C219.406 72.821 219.23 72.2824 218.878 71.909C218.526 71.525 218.046 71.333 217.438 71.333C216.819 71.333 216.329 71.525 215.966 71.909C215.614 72.2824 215.438 72.821 215.438 73.525V78.421H213.198V69.557H215.438V70.661C215.737 70.277 216.115 69.9784 216.574 69.765C217.043 69.541 217.555 69.429 218.11 69.429ZM223.2 73.957C223.2 73.061 223.376 72.2664 223.728 71.573C224.091 70.8797 224.581 70.3464 225.2 69.973C225.819 69.5997 226.507 69.413 227.264 69.413C227.84 69.413 228.389 69.541 228.912 69.797C229.435 70.0424 229.851 70.373 230.16 70.789V66.581H232.432V78.421H230.16V77.109C229.883 77.5464 229.493 77.8984 228.992 78.165C228.491 78.4317 227.909 78.565 227.248 78.565C226.501 78.565 225.819 78.373 225.2 77.989C224.581 77.605 224.091 77.0664 223.728 76.373C223.376 75.669 223.2 74.8637 223.2 73.957ZM230.176 73.989C230.176 73.445 230.069 72.981 229.856 72.597C229.643 72.2024 229.355 71.9037 228.992 71.701C228.629 71.4877 228.24 71.381 227.824 71.381C227.408 71.381 227.024 71.4824 226.672 71.685C226.32 71.8877 226.032 72.1864 225.808 72.581C225.595 72.965 225.488 73.4237 225.488 73.957C225.488 74.4904 225.595 74.9597 225.808 75.365C226.032 75.7597 226.32 76.0637 226.672 76.277C227.035 76.4904 227.419 76.597 227.824 76.597C228.24 76.597 228.629 76.4957 228.992 76.293C229.355 76.0797 229.643 75.781 229.856 75.397C230.069 75.0024 230.176 74.533 230.176 73.989ZM246.208 70.613C245.952 70.1437 245.6 69.7864 245.152 69.541C244.704 69.2957 244.182 69.173 243.584 69.173C242.923 69.173 242.336 69.3224 241.824 69.621C241.312 69.9197 240.912 70.3464 240.624 70.901C240.336 71.4557 240.192 72.0957 240.192 72.821C240.192 73.5677 240.336 74.2184 240.624 74.773C240.923 75.3277 241.334 75.7544 241.856 76.053C242.379 76.3517 242.987 76.501 243.68 76.501C244.534 76.501 245.232 76.277 245.776 75.829C246.32 75.3704 246.678 74.7357 246.848 73.925H243.008V72.213H249.056V74.165C248.907 74.9437 248.587 75.6637 248.096 76.325C247.606 76.9864 246.971 77.5197 246.192 77.925C245.424 78.3197 244.56 78.517 243.6 78.517C242.523 78.517 241.547 78.277 240.672 77.797C239.808 77.3064 239.126 76.629 238.624 75.765C238.134 74.901 237.888 73.9197 237.888 72.821C237.888 71.7224 238.134 70.741 238.624 69.877C239.126 69.0024 239.808 68.325 240.672 67.845C241.547 67.3544 242.518 67.109 243.584 67.109C244.843 67.109 245.936 67.4184 246.864 68.037C247.792 68.645 248.432 69.5037 248.784 70.613H246.208ZM252.953 70.933C253.241 70.4637 253.615 70.0957 254.073 69.829C254.543 69.5624 255.076 69.429 255.673 69.429V71.781H255.081C254.377 71.781 253.844 71.9464 253.481 72.277C253.129 72.6077 252.953 73.1837 252.953 74.005V78.421H250.713V69.557H252.953V70.933ZM261.118 78.565C260.265 78.565 259.497 78.3784 258.814 78.005C258.132 77.621 257.593 77.0824 257.198 76.389C256.814 75.6957 256.622 74.8957 256.622 73.989C256.622 73.0824 256.82 72.2824 257.214 71.589C257.62 70.8957 258.169 70.3624 258.862 69.989C259.556 69.605 260.329 69.413 261.182 69.413C262.036 69.413 262.809 69.605 263.502 69.989C264.196 70.3624 264.74 70.8957 265.134 71.589C265.54 72.2824 265.742 73.0824 265.742 73.989C265.742 74.8957 265.534 75.6957 265.118 76.389C264.713 77.0824 264.158 77.621 263.454 78.005C262.761 78.3784 261.982 78.565 261.118 78.565ZM261.118 76.613C261.524 76.613 261.902 76.517 262.254 76.325C262.617 76.1224 262.905 75.8237 263.118 75.429C263.332 75.0344 263.438 74.5544 263.438 73.989C263.438 73.1464 263.214 72.501 262.766 72.053C262.329 71.5944 261.79 71.365 261.15 71.365C260.51 71.365 259.972 71.5944 259.534 72.053C259.108 72.501 258.894 73.1464 258.894 73.989C258.894 74.8317 259.102 75.4824 259.518 75.941C259.945 76.389 260.478 76.613 261.118 76.613ZM279.673 69.557L277.081 78.421H274.665L273.049 72.229L271.433 78.421H269.001L266.393 69.557H268.665L270.233 76.309L271.929 69.557H274.297L275.961 76.293L277.529 69.557H279.673ZM285.834 68.501C285.439 68.501 285.109 68.3784 284.842 68.133C284.586 67.877 284.458 67.5624 284.458 67.189C284.458 66.8157 284.586 66.5064 284.842 66.261C285.109 66.005 285.439 65.877 285.834 65.877C286.229 65.877 286.554 66.005 286.81 66.261C287.077 66.5064 287.21 66.8157 287.21 67.189C287.21 67.5624 287.077 67.877 286.81 68.133C286.554 68.3784 286.229 68.501 285.834 68.501ZM286.938 69.557V78.421H284.698V69.557H286.938ZM294.063 69.429C295.119 69.429 295.972 69.765 296.623 70.437C297.274 71.0984 297.599 72.0264 297.599 73.221V78.421H295.359V73.525C295.359 72.821 295.183 72.2824 294.831 71.909C294.479 71.525 293.999 71.333 293.391 71.333C292.772 71.333 292.282 71.525 291.919 71.909C291.567 72.2824 291.391 72.821 291.391 73.525V78.421H289.151V69.557H291.391V70.661C291.69 70.277 292.068 69.9784 292.527 69.765C292.996 69.541 293.508 69.429 294.063 69.429ZM309.846 78.421L305.782 73.445V78.421H303.542V67.253H305.782V72.261L309.846 67.253H312.55L307.942 72.789L312.678 78.421H309.846ZM318.087 78.565C317.234 78.565 316.466 78.3784 315.783 78.005C315.1 77.621 314.562 77.0824 314.167 76.389C313.783 75.6957 313.591 74.8957 313.591 73.989C313.591 73.0824 313.788 72.2824 314.183 71.589C314.588 70.8957 315.138 70.3624 315.831 69.989C316.524 69.605 317.298 69.413 318.151 69.413C319.004 69.413 319.778 69.605 320.471 69.989C321.164 70.3624 321.708 70.8957 322.103 71.589C322.508 72.2824 322.711 73.0824 322.711 73.989C322.711 74.8957 322.503 75.6957 322.087 76.389C321.682 77.0824 321.127 77.621 320.423 78.005C319.73 78.3784 318.951 78.565 318.087 78.565ZM318.087 76.613C318.492 76.613 318.871 76.517 319.223 76.325C319.586 76.1224 319.874 75.8237 320.087 75.429C320.3 75.0344 320.407 74.5544 320.407 73.989C320.407 73.1464 320.183 72.501 319.735 72.053C319.298 71.5944 318.759 71.365 318.119 71.365C317.479 71.365 316.94 71.5944 316.503 72.053C316.076 72.501 315.863 73.1464 315.863 73.989C315.863 74.8317 316.071 75.4824 316.487 75.941C316.914 76.389 317.447 76.613 318.087 76.613ZM326.594 70.933C326.882 70.4637 327.255 70.0957 327.714 69.829C328.183 69.5624 328.717 69.429 329.314 69.429V71.781H328.722C328.018 71.781 327.485 71.9464 327.122 72.277C326.77 72.6077 326.594 73.1837 326.594 74.005V78.421H324.354V69.557H326.594V70.933ZM339.063 73.797C339.063 74.117 339.042 74.405 338.999 74.661H332.519C332.572 75.301 332.796 75.8024 333.191 76.165C333.586 76.5277 334.071 76.709 334.647 76.709C335.479 76.709 336.071 76.3517 336.423 75.637H338.839C338.583 76.4904 338.092 77.1944 337.367 77.749C336.642 78.293 335.751 78.565 334.695 78.565C333.842 78.565 333.074 78.3784 332.391 78.005C331.719 77.621 331.191 77.0824 330.807 76.389C330.434 75.6957 330.247 74.8957 330.247 73.989C330.247 73.0717 330.434 72.2664 330.807 71.573C331.18 70.8797 331.703 70.3464 332.375 69.973C333.047 69.5997 333.82 69.413 334.695 69.413C335.538 69.413 336.29 69.5944 336.951 69.957C337.623 70.3197 338.14 70.837 338.503 71.509C338.876 72.1704 339.063 72.933 339.063 73.797ZM336.743 73.157C336.732 72.581 336.524 72.1224 336.119 71.781C335.714 71.429 335.218 71.253 334.631 71.253C334.076 71.253 333.607 71.4237 333.223 71.765C332.85 72.0957 332.62 72.5597 332.535 73.157H336.743ZM340.122 73.957C340.122 73.061 340.298 72.2664 340.65 71.573C341.013 70.8797 341.498 70.3464 342.106 69.973C342.725 69.5997 343.413 69.413 344.17 69.413C344.831 69.413 345.407 69.5464 345.898 69.813C346.399 70.0797 346.799 70.4157 347.098 70.821V69.557H349.354V78.421H347.098V77.125C346.81 77.541 346.41 77.8877 345.898 78.165C345.397 78.4317 344.815 78.565 344.154 78.565C343.407 78.565 342.725 78.373 342.106 77.989C341.498 77.605 341.013 77.0664 340.65 76.373C340.298 75.669 340.122 74.8637 340.122 73.957ZM347.098 73.989C347.098 73.445 346.991 72.981 346.778 72.597C346.565 72.2024 346.277 71.9037 345.914 71.701C345.551 71.4877 345.162 71.381 344.746 71.381C344.33 71.381 343.946 71.4824 343.594 71.685C343.242 71.8877 342.954 72.1864 342.73 72.581C342.517 72.965 342.41 73.4237 342.41 73.957C342.41 74.4904 342.517 74.9597 342.73 75.365C342.954 75.7597 343.242 76.0637 343.594 76.277C343.957 76.4904 344.341 76.597 344.746 76.597C345.162 76.597 345.551 76.4957 345.914 76.293C346.277 76.0797 346.565 75.781 346.778 75.397C346.991 75.0024 347.098 74.533 347.098 73.989ZM356.454 69.429C357.51 69.429 358.363 69.765 359.014 70.437C359.664 71.0984 359.99 72.0264 359.99 73.221V78.421H357.75V73.525C357.75 72.821 357.574 72.2824 357.222 71.909C356.87 71.525 356.39 71.333 355.782 71.333C355.163 71.333 354.672 71.525 354.31 71.909C353.958 72.2824 353.782 72.821 353.782 73.525V78.421H351.542V69.557H353.782V70.661C354.08 70.277 354.459 69.9784 354.918 69.765C355.387 69.541 355.899 69.429 356.454 69.429Z" fill="#475569"/>
<defs>
<clipPath id="clip0_1579_86">
<rect width="85" height="85" fill="white"/>
</clipPath>
</defs>
</svg>
