<svg width="335" height="86" viewBox="0 0 335 86" fill="none" xmlns="http://www.w3.org/2000/svg">
<path d="M137.104 26.496V60H130.384V45.744H116.032V60H109.312V26.496H116.032V40.272H130.384V26.496H137.104ZM141.99 46.608C141.99 43.92 142.518 41.536 143.574 39.456C144.662 37.376 146.118 35.776 147.942 34.656C149.798 33.536 151.862 32.976 154.134 32.976C156.118 32.976 157.846 33.376 159.318 34.176C160.822 34.976 162.022 35.984 162.918 37.2V33.408H169.686V60H162.918V56.112C162.054 57.36 160.854 58.4 159.318 59.232C157.814 60.032 156.07 60.432 154.086 60.432C151.846 60.432 149.798 59.856 147.942 58.704C146.118 57.552 144.662 55.936 143.574 53.856C142.518 51.744 141.99 49.328 141.99 46.608ZM162.918 46.704C162.918 45.072 162.598 43.68 161.958 42.528C161.318 41.344 160.454 40.448 159.366 39.84C158.278 39.2 157.11 38.88 155.862 38.88C154.614 38.88 153.462 39.184 152.406 39.792C151.35 40.4 150.486 41.296 149.814 42.48C149.174 43.632 148.854 45.008 148.854 46.608C148.854 48.208 149.174 49.616 149.814 50.832C150.486 52.016 151.35 52.928 152.406 53.568C153.494 54.208 154.646 54.528 155.862 54.528C157.11 54.528 158.278 54.224 159.366 53.616C160.454 52.976 161.318 52.08 161.958 50.928C162.598 49.744 162.918 48.336 162.918 46.704ZM190.986 33.024C194.154 33.024 196.714 34.032 198.666 36.048C200.618 38.032 201.594 40.816 201.594 44.4V60H194.874V45.312C194.874 43.2 194.346 41.584 193.29 40.464C192.234 39.312 190.794 38.736 188.97 38.736C187.114 38.736 185.642 39.312 184.554 40.464C183.498 41.584 182.97 43.2 182.97 45.312V60H176.25V33.408H182.97V36.72C183.866 35.568 185.002 34.672 186.378 34.032C187.786 33.36 189.322 33.024 190.986 33.024ZM252.768 26.496L243.408 60H235.488L229.2 36.144L222.624 60L214.752 60.048L205.728 26.496H212.928L218.832 52.512L225.648 26.496H233.136L239.568 52.368L245.52 26.496H252.768ZM263.876 37.536C264.74 36.128 265.86 35.024 267.236 34.224C268.644 33.424 270.244 33.024 272.036 33.024V40.08H270.26C268.148 40.08 266.548 40.576 265.46 41.568C264.404 42.56 263.876 44.288 263.876 46.752V60H257.156V33.408H263.876V37.536ZM279.97 30.24C278.786 30.24 277.794 29.872 276.994 29.136C276.226 28.368 275.842 27.424 275.842 26.304C275.842 25.184 276.226 24.256 276.994 23.52C277.794 22.752 278.786 22.368 279.97 22.368C281.154 22.368 282.13 22.752 282.898 23.52C283.698 24.256 284.098 25.184 284.098 26.304C284.098 27.424 283.698 28.368 282.898 29.136C282.13 29.872 281.154 30.24 279.97 30.24ZM283.282 33.408V60H276.562V33.408H283.282ZM297.745 38.928V51.792C297.745 52.688 297.953 53.344 298.369 53.76C298.817 54.144 299.553 54.336 300.577 54.336H303.697V60H299.473C293.809 60 290.977 57.248 290.977 51.744V38.928H287.809V33.408H290.977V26.832H297.745V33.408H303.697V38.928H297.745ZM333.251 46.128C333.251 47.088 333.187 47.952 333.059 48.72H313.619C313.779 50.64 314.451 52.144 315.635 53.232C316.819 54.32 318.275 54.864 320.003 54.864C322.499 54.864 324.275 53.792 325.331 51.648H332.579C331.811 54.208 330.339 56.32 328.163 57.984C325.987 59.616 323.315 60.432 320.147 60.432C317.587 60.432 315.283 59.872 313.235 58.752C311.219 57.6 309.635 55.984 308.483 53.904C307.363 51.824 306.803 49.424 306.803 46.704C306.803 43.952 307.363 41.536 308.483 39.456C309.603 37.376 311.171 35.776 313.187 34.656C315.203 33.536 317.523 32.976 320.147 32.976C322.675 32.976 324.931 33.52 326.915 34.608C328.931 35.696 330.483 37.248 331.571 39.264C332.691 41.248 333.251 43.536 333.251 46.128ZM326.291 44.208C326.259 42.48 325.635 41.104 324.419 40.08C323.203 39.024 321.715 38.496 319.955 38.496C318.291 38.496 316.883 39.008 315.731 40.032C314.611 41.024 313.923 42.416 313.667 44.208H326.291Z" fill="#206F5F"/>
<g clip-path="url(#clip0_1579_103)">
<path d="M39.1114 0H46.1431C46.5481 0.197362 49.4856 0.459232 50.1353 0.569825C55.4437 1.47349 61.7209 3.64154 66.273 6.58839C76.3156 13.0896 83.8753 24.0333 85.4488 35.9783C86.1594 41.2426 86.0079 46.8864 85.0549 52.1102C84.6256 54.4647 83.6025 57.2083 82.7086 59.4219C79.0471 68.4894 70.8843 77.6619 61.8166 81.4929C61.3622 81.8768 57.5036 83.433 56.8403 83.6148C54.5295 84.5506 52.277 84.9863 49.8472 85.425C49.0968 85.5599 46.643 85.7316 46.0643 86H41.141C40.8318 85.829 39.7093 85.7215 39.3032 85.6674C37.0788 85.272 34.8173 85.1898 32.5531 84.6227C25.8982 82.9561 17.927 79.0067 13.1521 74.0697C12.044 72.8908 10.2212 71.2071 9.41491 69.9199C5.14271 65.349 2.29015 58.2537 0.747904 52.2534C0.355969 50.7285 0.384412 48.7878 0.0202713 47.4569L0 47.3854V38.4079C0.1627 37.8782 0.197717 36.7984 0.279724 36.1945C0.382528 35.4376 0.491288 34.7285 0.650095 33.9748C1.51651 29.8626 3.17125 25.3409 5.26062 21.6991C7.04735 18.5847 9.27278 15.5977 11.7888 13.0656C12.5776 12.2717 13.2796 11.3992 14.1233 10.6395C14.666 10.1398 15.2769 9.69657 15.849 9.23418C21.8441 4.38839 29.357 1.23188 37.0014 0.264433C37.6278 0.185159 38.4574 0.178414 39.0409 0.019888L39.1114 0Z" fill="#009E6A"/>
<path d="M27.3831 49.1687C28.2074 47.0295 28.9245 44.7722 29.7346 42.5965C32.3611 35.5425 36.8445 28.491 43.9875 25.3092C48.4133 23.3852 53.4186 23.2817 57.9202 25.021C61.3048 26.322 62.4971 27.6978 65.0804 29.6884C64.0265 30.7028 62.9809 31.6433 62.0338 32.7636C58.387 37.0979 56.3439 42.5559 56.2483 48.2195C56.1763 50.7567 56.5203 53.2887 57.2669 55.7147C57.6383 56.886 58.141 58.0673 58.5182 59.2396C60.6858 65.9766 60.5489 72.5062 58.4971 79.203C58.2165 80.1337 57.8943 81.0514 57.5315 81.9532C57.3438 82.415 56.9776 83.1862 56.8403 83.6148C54.5295 84.5506 52.277 84.9863 49.8473 85.425C49.0968 85.5599 46.643 85.7316 46.0643 86H41.1411C40.8318 85.829 39.7093 85.7215 39.3032 85.6674C37.0788 85.272 34.8173 85.1898 32.5531 84.6227C25.8982 82.9561 17.927 79.0067 13.1521 74.0697C13.3758 73.7609 14.2047 73.1613 14.5446 72.8042C20.9538 66.0707 24.4306 57.8604 27.3831 49.1687Z" fill="#69D66C"/>
<path d="M27.3831 49.1687C28.1842 49.1726 28.9946 49.2882 29.797 49.3484C34.6618 49.7129 39.8645 51.3505 43.4236 54.8068C45.7807 57.0959 46.8125 60.5161 46.7285 63.7609C46.576 69.6586 44.3081 75.8142 41.7347 81.0427C41.3198 81.9049 40.8819 82.7555 40.4214 83.5946C40.1857 84.0196 39.4409 85.2951 39.3032 85.6674C37.0788 85.272 34.8173 85.1898 32.5531 84.6227C25.8982 82.9561 17.927 79.0067 13.1521 74.0697C13.3758 73.7609 14.2047 73.1613 14.5446 72.8042C20.9538 66.0707 24.4306 57.8604 27.3831 49.1687Z" fill="#03A0A5"/>
<path d="M47.4359 31.8782C49.717 31.4242 51.9346 32.9042 52.3905 35.1848C52.8464 37.4655 51.3683 39.6843 49.088 40.1422C46.8051 40.6006 44.583 39.1203 44.1265 36.8369C43.67 34.5536 45.1522 32.3328 47.4359 31.8782Z" fill="#0A3852"/>
<path d="M23.0085 18.2443C24.5294 16.5925 26.0377 15.102 27.8963 13.8104C31.9245 11.011 36.3224 9.1401 41.2921 8.93369C48.7263 8.59748 55.98 11.2853 61.4003 16.3845C64.4651 19.2162 66.8705 22.6329 68.2468 26.5708C68.5784 27.1819 68.8331 29.2887 69.2333 29.739C70.0713 30.6529 71.1001 31.162 72.0353 32.0477C79.6539 39.2626 79.9201 50.2104 74.517 58.7997C74.1072 59.4508 72.701 61.9689 71.7231 60.7392C70.9787 59.8026 70.0692 58.0769 69.5803 56.9601C68.344 57.78 64.1867 58.9785 62.475 59.6106C63.9737 65.0451 64.1997 70.752 63.1353 76.2882C62.917 77.4101 62.6385 78.3798 62.3267 79.4706C62.1805 79.9822 61.8608 81.0168 61.8166 81.4929C61.3622 81.8768 57.5036 83.433 56.8403 83.6148C56.9776 83.1862 57.3438 82.415 57.5315 81.9532C57.8943 81.0514 58.2165 80.1337 58.4971 79.203C60.5488 72.5062 60.6858 65.9766 58.5182 59.2396C58.141 58.0673 57.6383 56.886 57.2668 55.7147C56.5203 53.2887 56.1763 50.7567 56.2483 48.2195C56.3439 42.5559 58.387 37.0979 62.0338 32.7636C62.9809 31.6433 64.0265 30.7028 65.0804 29.6884C62.4971 27.6978 61.3048 26.322 57.9201 25.021C53.4186 23.2817 48.4132 23.3852 43.9875 25.3092C36.8444 28.491 32.361 35.5425 29.7346 42.5965C28.9245 44.7722 28.2074 47.0294 27.3831 49.1687C24.4306 57.8604 20.9538 66.0707 14.5446 72.8042C14.2047 73.1613 13.3758 73.7609 13.1521 74.0697C12.0441 72.8908 10.2212 71.2071 9.41492 69.9199C9.60993 69.5835 10.0076 68.0601 10.1523 67.585L11.789 62.3022C14.5299 53.4865 17.2714 44.3561 21.3719 36.0696C22.0044 34.7913 23.0339 32.6913 23.8919 31.6121C20.3659 30.9158 17.1582 29.0396 15.0828 26.0133C13.7086 24.0092 12.9852 21.4108 13.3019 18.9528C13.3634 18.5917 13.54 18.2119 13.8571 18.0129C14.0677 17.8807 14.4313 17.7961 14.6704 17.8078C17.4047 17.9425 20.2963 17.9656 23.0085 18.2443Z" fill="#0A3852"/>
<path d="M67.0537 32.726C70.1498 35.0307 72.6916 38.0655 73.8784 41.797C75.1302 45.7332 74.4982 51.0854 72.5524 54.7171C71.9939 53.495 71.3407 52.8364 70.4483 51.8494C67.2144 48.3565 64.2664 46.7466 60.2256 44.5213C61.768 39.1232 63.4484 36.8112 67.0537 32.726Z" fill="#FEA82B"/>
<path d="M59.7943 48.5347C62.7169 50.1306 65.2177 51.5207 67.5433 54.0359C67.0755 54.3048 66.4021 54.5236 65.8805 54.7115C64.4584 55.1698 62.7428 55.7022 61.3699 56.2677C60.3949 53.8024 59.8615 51.1849 59.7943 48.5347Z" fill="#FEA82B"/>
</g>
<defs>
<clipPath id="clip0_1579_103">
<rect width="86" height="86" fill="white"/>
</clipPath>
</defs>
</svg>
