<svg width="85" height="85" viewBox="0 0 85 85" fill="none" xmlns="http://www.w3.org/2000/svg">
<g clip-path="url(#clip0_1579_87)">
<path d="M38.6566 -0.000854492H45.6066C46.0068 0.194213 48.9102 0.453038 49.5523 0.562345C54.799 1.4555 61.0032 3.59834 65.5024 6.51093C75.4282 12.9365 82.9 23.753 84.4552 35.5591C85.1576 40.7622 85.0078 46.3403 84.0659 51.5034C83.6416 53.8305 82.6304 56.5422 81.7469 58.7301C78.128 67.6922 70.0601 76.758 61.0978 80.5445C60.6487 80.9239 56.8349 82.462 56.1794 82.6417C53.8954 83.5665 51.6691 83.9973 49.2676 84.4308C48.5259 84.5642 46.1007 84.7339 45.5287 84.9991H40.6627C40.357 84.8301 39.2475 84.7239 38.8462 84.6704C36.6476 84.2796 34.4124 84.1984 32.1746 83.6379C25.5971 81.9906 17.7185 78.0872 12.9992 73.2075C11.904 72.0424 10.1023 70.3782 9.30543 69.1061C5.08291 64.5883 2.26352 57.5754 0.739208 51.6449C0.35183 50.1378 0.379942 48.2196 0.0200355 46.9042L0 46.8335V37.9604C0.160808 37.4369 0.195418 36.3697 0.276472 35.7728C0.37808 35.0246 0.485575 34.3238 0.642536 33.5789C1.49887 29.5145 3.13438 25.0453 5.19945 21.4459C6.9654 18.3678 9.16495 15.4155 11.6517 12.9128C12.4314 12.1282 13.1252 11.2658 13.959 10.515C14.4954 10.0211 15.0993 9.58297 15.6647 9.12595C21.5901 4.33651 29.0156 1.2167 36.5712 0.260503C37.1903 0.182151 38.0102 0.175485 38.5869 0.0188023L38.6566 -0.000854492Z" fill="#009E6A"/>
<path d="M27.065 48.5963C27.8797 46.4819 28.5885 44.2509 29.3891 42.1005C31.985 35.1285 36.4163 28.159 43.4763 25.0142C47.8506 23.1126 52.7978 23.0103 57.2469 24.7294C60.5922 26.0152 61.7707 27.375 64.324 29.3425C63.2823 30.3451 62.2489 31.2747 61.3128 32.3819C57.7084 36.6658 55.6891 42.0603 55.5945 47.658C55.5233 50.1658 55.8634 52.6683 56.6012 55.0662C56.9684 56.2238 57.4652 57.3914 57.838 58.55C59.9804 65.2087 59.8451 71.6624 57.8172 78.2813C57.5399 79.2012 57.2214 80.1082 56.8628 80.9996C56.6773 81.456 56.3154 82.2182 56.1797 82.6418C53.8957 83.5667 51.6694 83.9974 49.2679 84.431C48.5262 84.5643 46.101 84.734 45.529 84.9993H40.663C40.3573 84.8303 39.2478 84.724 38.8465 84.6706C36.6479 84.2798 34.4127 84.1985 32.1749 83.638C25.5973 81.9908 17.7188 78.0873 12.9995 73.2077C13.2205 72.9025 14.0398 72.3099 14.3758 71.9569C20.7104 65.3017 24.1468 57.1869 27.065 48.5963Z" fill="#69D66C"/>
<path d="M27.065 48.5959C27.8568 48.5998 28.6578 48.714 29.4508 48.7735C34.259 49.1338 39.4012 50.7524 42.919 54.1685C45.2487 56.431 46.2685 59.8114 46.1855 63.0184C46.0347 68.8476 43.7931 74.9316 41.2497 80.0994C40.8397 80.9515 40.4068 81.7922 39.9517 82.6216C39.7187 83.0416 38.9826 84.3023 38.8465 84.6702C36.6479 84.2795 34.4127 84.1982 32.1749 83.6377C25.5973 81.9905 17.7188 78.087 12.9995 73.2074C13.2205 72.9022 14.0398 72.3096 14.3758 71.9566C20.7104 65.3014 24.1468 57.1866 27.065 48.5959Z" fill="#03A0A5"/>
<path d="M46.8847 31.5062C49.1393 31.0575 51.331 32.5202 51.7816 34.7744C52.2323 37.0285 50.7714 39.2215 48.5176 39.6741C46.2612 40.1272 44.0649 38.6641 43.6138 36.4073C43.1626 34.1505 44.6275 31.9555 46.8847 31.5062Z" fill="#0A3852"/>
<path d="M22.7411 18.0314C24.2444 16.3989 25.7351 14.9256 27.572 13.6491C31.5534 10.8823 35.9002 9.0331 40.8121 8.82908C48.1599 8.49678 55.3293 11.1533 60.6865 16.1933C63.7157 18.9921 66.0931 22.369 67.4534 26.2611C67.7812 26.8651 68.0328 28.9474 68.4285 29.3925C69.2566 30.2957 70.2735 30.7989 71.1979 31.6743C78.7279 38.8054 78.991 49.6259 73.6507 58.1153C73.2456 58.7588 71.8558 61.2476 70.8893 60.0322C70.1536 59.1065 69.2546 57.4009 68.7714 56.2971C67.5494 57.1074 63.4405 58.292 61.7487 58.9167C63.23 64.288 63.4533 69.9286 62.4014 75.4004C62.1855 76.5093 61.9103 77.4677 61.6021 78.5459C61.4576 79.0514 61.1416 80.074 61.098 80.5446C60.6489 80.924 56.8351 82.4621 56.1795 82.6418C56.3152 82.2183 56.6771 81.456 56.8627 80.9996C57.2213 80.1082 57.5398 79.2012 57.8171 78.2813C59.8449 71.6624 59.9803 65.2087 57.8379 58.55C57.4651 57.3914 56.9683 56.2238 56.6011 55.0662C55.8633 52.6683 55.5232 50.1658 55.5944 47.658C55.6889 42.0603 57.7083 36.6658 61.3126 32.3819C62.2488 31.2746 63.2822 30.3451 64.3238 29.3425C61.7706 27.375 60.5921 26.0152 57.2468 24.7294C52.7976 23.0103 47.8505 23.1126 43.4762 25.0142C36.4162 28.159 31.9849 35.1285 29.389 42.1005C28.5883 44.2509 27.8796 46.4819 27.0648 48.5963C24.1467 57.1869 20.7103 65.3017 14.3757 71.9569C14.0396 72.3099 13.2204 72.9025 12.9993 73.2077C11.9042 72.0425 10.1025 70.3784 9.3056 69.1062C9.49835 68.7737 9.8914 67.268 10.0345 66.7985L11.6521 61.5771C14.3611 52.8638 17.0707 43.8396 21.1235 35.6494C21.7487 34.3861 22.7662 32.3105 23.6143 31.2438C20.1293 30.5556 16.9589 28.7013 14.9076 25.7101C13.5493 23.7293 12.8344 21.1611 13.1474 18.7317C13.2082 18.3748 13.3828 17.9995 13.6962 17.8027C13.9043 17.6721 14.2637 17.5884 14.4999 17.6001C17.2025 17.7332 20.0605 17.756 22.7411 18.0314Z" fill="#0A3852"/>
<path d="M66.2741 32.345C69.3341 34.6229 71.8464 37.6224 73.0194 41.3105C74.2566 45.2009 73.632 50.491 71.7088 54.0804C71.1568 52.8725 70.5112 52.2216 69.6291 51.2461C66.4329 47.7937 63.5191 46.2026 59.5253 44.0032C61.0498 38.6678 62.7107 36.3828 66.2741 32.345Z" fill="#FEA82B"/>
<path d="M59.0994 47.9701C61.9879 49.5474 64.4597 50.9213 66.7582 53.4073C66.2959 53.6731 65.6303 53.8894 65.1148 54.075C63.7092 54.528 62.0136 55.0543 60.6566 55.6131C59.6929 53.1766 59.1658 50.5894 59.0994 47.9701Z" fill="#FEA82B"/>
</g>
<defs>
<clipPath id="clip0_1579_87">
<rect width="85" height="85" fill="white"/>
</clipPath>
</defs>
</svg>
